<svg xmlns="http://www.w3.org/2000/svg" viewBox="0 0 429.03 524.58"><defs><style>.cls-1{fill:#ededed;stroke:#000;opacity:0.4;}.cls-1,.cls-2,.cls-5,.cls-6{stroke-miterlimit:10;}.cls-2,.cls-5{stroke:#020202;}.cls-3{fill:#333;}.cls-4{fill:#070707;}.cls-5{fill:#d3cfcf;}.cls-6{fill:#262525;stroke:#070707;}</style></defs><title>Asset 2</title><g id="Layer_2" data-name="Layer 2"><g id="BOTTOM_LEFT" data-name="BOTTOM LEFT"><path class="cls-1" d="M266.53,457.51a121.88,121.88,0,0,0,19,4c2.09.26,4.66.5,7-1,3-1.92,3.77-5.53,4-7-10.53-9.05-16.76-19.06-14-25,2.55-5.5,13.16-6,13-9-.09-1.79-4-3.1-8-4h27l-23-6c.62-2.13,1.59-5.27,3-9a121.7,121.7,0,0,1,8-17c3.3-6.13,4.84-17.41-3-40,2-20.51,13.91-34,25-34,1.77,0,7.47.31,14,7l3,2a32.15,32.15,0,0,0,20,2,31.08,31.08,0,0,0,11-5s17-14,21-21,13-22,13-23,7-15,7-15,3-10,3-12,1-13,0-14-7-16-7-16l-10-7h-18l-12,7-40-52-37-32-61-37-40-12-43-3-45,25-17,47,4,18-6,45v42l4,7,4,6-1,7-4,12-7,15,18,60,24,21,2,2s46,19,55,21c23.11,5.13,32.14,22.37,63,39C252.69,451,261.18,455,266.53,457.51Z"/><path id="BEARD" class="cls-2" d="M102.53,284.51l3,3,6-3h6l5,1h4l4,4h3s3,1,4,2,4,5,4,5h4l4,2,5,5a4.83,4.83,0,0,0,4,0,40.76,40.76,0,0,1,7-2s3,5,3,7v6l5,4s5,3,5,5,2,6,3,7,9,0,9,0a16.7,16.7,0,0,0,3,9c3,4,9,9,9,9v-11s2-2,3-2,3,1,7-4,6-8,6-8,1,7,3,5,0-1,4-6,11-10,11-10,1,3,3,2a36.54,36.54,0,0,0,10-7c4-4,5-8,7-9s8-5,9-7,5-1,5-1-7,15-2,10,9-17,10-18,5-6,5-6l4,2s1-2,6-6,14-14,14-14l10-13s2-14,3-12l7,14s0-8,2-3,11,10,11,10l-2,13s-4,15-4,16-3,16-2,17,5,17,5,18-10-8-10-8v17a115.48,115.48,0,0,0,2,16c1,4,4,22,5,26s-13-22-13-22,1,17,3,22-10-6,2,15l12,21-18-7s4,12,4,15v17c0,3-6,17-6,17s3-14,0-20-10-6-10-6a23.13,23.13,0,0,0,2,9c2,4,1,13,1,15s3,9,3,10-8-11-10-13-6-9-6-9l5,22s-1,7-1,9-2,10-2,10l-5,10-6-12s-6,10-6,12-2,8-2,8l2,8s-13-15-13-16-12-1-12-1l-7,5-4-4-3,6v6l4,4s-11-3-12-8-3-3-3-3l-2,11-7-2-3,4v6l-14,7-8,6,8-16-5-1-8,7-4-2s-10,10-16,12l-6,2,9-10-17,7h-7l-5,3h-13l18-8v-8l-14,9-16,7s7-15,8-16,0-10,0-10-8,12-8,13-7,7-9,8-9,2-9,2,7-6,8-14-1-12-1-12l-10,11-6,11-2-14-7,8-5-7-5,2-5-11s-15,6-15,5v-10l-7-2,2-3-2-2s1-6,3-8,9-15,9-15-9,7-14,7-5-2-5-2,5-6,10-9,4-11,4-11l-2-10s-3-1-5,6a70,70,0,0,1-4,11s-2-14-1-17,5-16,5-16l2-7-9,5-3,8,6-24s4-12,7-14,8-10,8-10-8,4-9,5-8,9-8,9l8-23s6-12,8-13,9-8,9-8l4-7,3-8-6,7-5,2s7-13,7-15,5-8,5-8l1-6-9,9s0-8,3-10,8-11,8-11a14.63,14.63,0,0,1,3-5c2-2,7-6,7-6v-3l4-4s3,3,3,4S102.53,284.51,102.53,284.51Z"/><g id="HAIR"><path class="cls-3" d="M374,315l-3,19-6,18-3,6,6-3v12s4-4,4-5,6-9,6-9v10a29.58,29.58,0,0,0,3-4l2-3,7-3v11s1-1,3-5,0-25,0-25,6,8,6,9-1-9-2-12l-4-12s5,6,6,8,3-7,0-12a19.82,19.82,0,0,1-3-11,56.38,56.38,0,0,1,1-7,20.69,20.69,0,0,0,2-8c0-4-6,7-6,7s-6,8-7,8-12,9-12,9Z"/><path class="cls-3" d="M283,135s12,22,13,23,0,3,0,3l4.66,12.6L310,204v13l5-9s4,9,4,11,3,14,3,14l5-2,2,6c1,3,6,11,6,11l3,11,2-8,3,10,2,4,3,2-2-11V246l4-8,6,11s-1-15,0-16l7-7c3-3,6-12,6-12l13-10h18l17,17v20.12L425,176"/></g><g id="GLASSES"><path class="cls-4" d="M83.53,255.51s-7,2-9,0-10-11-10-11l-5-15s-2-16-2-17-2-11-2-11l-4-5s1-2,0-3-2-11-2-11,5-5,9-7,12-4,15-5,11-1,15-2,15-2,22,0,5,3,9,2,10-3,10-3,3-4,4-5,13-4,13-4l23-4,21-2,18,2,11,3,5,3,1,7v8l-7,4-5,9-1,14v17l-2,14s-5,7-7,8-18,8-18,8-19,2-21,2-13-4-13-4l-9-8-9-9-7-15-4-22h-4s-2,7-2,8-7,11-7,11l-5,8-4,11-9,9-8,10Z"/><path class="cls-5" d="M226,176l48,14,48,16s8,3,9,2,9-4,9-4h8l12.26-1.15L360,196l-20-9-11-6s-36-10-46-11-42-7-42-7l-13-2h-2Z"/><path d="M381.53,220.51s4-2,7-2,6,0,8,1,5,1,6,3,3,6,3,8,2,11,2,12-2,10-3,12l-6,12-3,2s4-15,4-19,1-7-1-10-5-9-5-10-4-2-5-3-6-3-6-3Z"/><path d="M344,281l5,3s2,2,4,1,8-2,8-2l8,2h3c1,0,4-4,4-4s6-4,6-5,2-4,2-8,1-6-1-8-12-7-12-7a18.66,18.66,0,0,1,3,4c1,2,4,5,4,6v8a43.31,43.31,0,0,1-1,5s-3,4-6,4-8-2-10-2-3-1-5-3a17.27,17.27,0,0,0-4-3s-4,0-4,1a7.58,7.58,0,0,1-2,4l-1,1Z"/></g><g id="CAPS"><path class="cls-2" d="M412.53,217.51c-1.5-2.29-5.65-7.94-13-10a24.09,24.09,0,0,0-12,0c-9.94,2.24-13.24,8.58-18,7-2.81-.93-4-3.91-5-6-1.87-3.9-8.25-9.93-21-22a344.78,344.78,0,0,0-40-32c-8.87-6.25-16-11.4-21-15-6.21-4.5-8.95-6.54-14-10-6-4.11-10.76-7.38-17-11a182.9,182.9,0,0,0-20-10l-38-16-32-10-21,3-21,21s-14,26-14,28-13,33-13,33-35-17-36-17-35-32-35-32l-17-21-4-21,9-13,25-12,23-4h21l49,12,17,5,12-14,18-18,26-18,21-10,30-4,32,8,32,11,41,19,21,24,16,15,20,32,12,27,3,40v36l-8,30-4,2a46.41,46.41,0,0,0-4-27Z"/><path class="cls-6" d="M323.53,162.51l-25-27-26-19-35-18s-35-14-38-15-39-15-39-15l-16-4L93.25,51.11l-14.72-3.6h-21L32.16,52.65,9.53,63.51l-9,13q2,10.5,4,21l10.41,12.86,17.27,18.14L51,145.87,62.14,153l24.22,11.56,6.17,3q5.2-12.76,10.4-25.53l13.37-29.42,3.23-6,23.95-21.42,18.05-2.58,25.87,8.08,36.81,14.83L256,120.63l35.4,24.79,29.15,22.09,15,12Z"/></g></g></g></svg>