<svg xmlns="http://www.w3.org/2000/svg" viewBox="0 0 314.6 580.21"><defs><style>.cls-1,.cls-4{fill:#fff;}.cls-2,.cls-4{stroke:#000;}.cls-2,.cls-3,.cls-4{stroke-miterlimit:10;}.cls-3{fill:#0c0c0c;stroke:#0c0c0c;}</style></defs><title>Asset 1</title><g id="Layer_2" data-name="Layer 2"><g id="MID_LEFT"><g id="selfie"><path id="BROW_LEFT" d="M35.8,231.21a35.67,35.67,0,0,1,7-7c5-4-3-3,1-4s8-5,8-5l6-2-1-2h4s3-2,5-3,7-3,7-3l-4,3s6-1,7-1,9,1,9,1l3-2v3s6,1,7,1,9,3,9,3h13l7,5,5,5-6-1,6,4-11,2-14-1s-18-1-19-1-12,2-14,3-16,3-18,3S35.8,231.21,35.8,231.21Z"/><path id="BROW_RIGHT" d="M176.8,227.21c0-1,8-4,10-6s3-2,3-2l3-6,1,3s-1-2,4-6,9-4,9-4l-3,4s9-2,11-2,20,1,20,1l-7,1,14,2s19,3,18,3h-13l9,4-4,3h-19s-21,0-21,1-21,3-22,4-16,4-16,4Z"/><path id="GLASSES" d="M299.8,234.21l-6-9-2-4-2-3h-6l-6,2-13-1s-9-1-10-1-10-1-14-1-13,1-13,1-15,3-20,3-26,5-26,5h-8l-6,1-2,2-3,1s3,1-5,1-10-1-10-1h-9s-1-5-4-5h-11s-26-1-32-1-14-2-14-2-16-1-17,0-16,3-18,3-17-1-18,0-3,0-3,0l-7,5q-.25,6.24-.5,12.5l6.5,4.5s3,0,5,6,4,13,4,15,5,22,8,26,7,10,10,12,10,6,13,7,16,3,16,3h18c3,0,15-3,15-4s12-7,14-10,8-12,9-13,6-8,6-9,3-11,3-12,5-13,5-13l1-3a22.69,22.69,0,0,0,4,1c1,0,3-1,4-1a22.69,22.69,0,0,0,4-1l3,7s3,9,4,11,10,18,12,20,7,8,9,10,11,7,13,8,7,4,11,4h18s14-1,19-2,12-5,14-6,9-6,10-9,6-12,6-14,2-14,2-14l1-9,1-2s1-8,1-9,0-4,3-4h4l4,5,5,4s1-5,1-6-1-8-1-8Z"/><path d="M16.8,300.21a79.74,79.74,0,0,1,8,6c2,2,7,12,8,14s0-3,0-3,0,4,1,5,2,4,2,4l3,4,3,1s-1-1-1,1,2,8,3,9,8,5,8,5l7,4-7-1,6,6c1,1,4,8,6,8s13,3,13,3l3-2,1,1s4,1,4,0,1-6,1-7,5-4,5-5-1,3-1,3,3,0,4-2l3-6c1-2,6-6,6-6v2s2-5,3-6,9-4,10-4,9,1,9,1l-3,2s7-1,8-1,3-4,6-3,7,1,8,2l4,4-1,3a7.91,7.91,0,0,1,7-2c4,1,6,1,7,0s1-4,3-4h6l6-2v2s1-1,4-1,8,1,9,2,5,0,5,0l-3,2s1-2,5,0,11,5,11,5l7,2-3,1a32.17,32.17,0,0,0,7,4c3,1,6,10,10,10s0,1,0,1,3,2,4,2,12-2,12-3,2-4,3-6,1-1,1-1v3c0,1,3-1,4-2s8-2,10-6a72.34,72.34,0,0,1,4-7l1,2,2-4,2-7h4l-2-3a59.23,59.23,0,0,0,4-6l4-8,2-4v2s0-6,1-6,3-7,3-7l3-5,3,1s1,9,1,12,6,11,6,11,3,4,3,5,1,9,2,10,2,4,2,4l-3-2s-1,1,0,4,1,9,1,10v8l-2-8s-1,10,0,12,1,10,1,11-2,14,0,17,1,4,1,4l-3-2s-1,8,0,10,3,10,3,10l-3-4s-3-3,1,9,2,18,2,18l-2-6c-1-3-1,7,0,9s-7,13-7,16-1,15-1,16,1,14,1,14l-2-1s-1,1-1,4-1,7-1,8-4,5-4,5l-2,6c-1,3-3-2-3-2a37.84,37.84,0,0,0-1,8c0,4-6,9-5,12s-2,7-2,7,1-4,0-6-2,2-3,3l-5,5c-1,1-9,3-10,5s-5-1-5-1-4,3-4,4-3,7-3,8-3-5-3-5a44.32,44.32,0,0,0-6,5c-3,3-8,9-10,11s-7,0-7,0l-4,3-1-2-3,3c-1,1-4,4-6,4s-12-2-12-2-20,2-21,5-3,3-4,4-8,2-8,2,6-3,5-3-8,0-9,2-9,0-9,0-11-4-12-4-22,4-21,4,4,2,5,2-5,1-5,1-8-2-8-3-5-6-5-6h-9s2,4,1,3-4-2-4-4-8-8-8-8l-7-1-1,4a17,17,0,0,1-4-7c-1-4-8-11-8-11l-3,4s-2-6-3-6-14-18-14-18l-6-9-1,7-4-12c-1-3-7-19-10-21s-5-1-5-1a10.07,10.07,0,0,1,1,3c0,1-3-3-3-3s-5-5,0-19,4-25,4-25l-6,12s-1-14,0-21,0-27,0-27l-4,13s-5-10,0-17,8-21,8-21l-3-19-4,5,4-14,4-17-4,4s-1-7,1-11,3-17,3-17l-6,3s1-7,2-9,3-15,3-15Z"/><path class="cls-1" d="M144.8,359.21s0,1,5,3,3,2,3,2v1l3-3s1-3,2-3,0,2,6,2a24.27,24.27,0,0,1,10,2l2,2s4-1,6,0l6,3c2,1,6,3,8,3s6,1,7,1,2,3,2,3l-1,1-1,3h1l-1,2-3,4s-5,1-7,0-5-3-5-3-1,2-2,2-8-1-9-1-6-1-7-1-6,2-6,2l-2-3-1,2a22.69,22.69,0,0,0-4-1c-1,0-2-1-5,1s-14,0-14,0l4,2a35.36,35.36,0,0,1-6,1c-2,0-8,3-8,3s-4,0-5-1-6-3-7-3-9,1-9,1l-3-6a14.39,14.39,0,0,1,2-3c1-1,2-6,2-6a10.07,10.07,0,0,0,3,1c1,0,8-3,8-4s4-1,9-1a79.67,79.67,0,0,1,11,1l2-5,4,2-1-4Z"/><path class="cls-2" d="M202.17,375.59a3.66,3.66,0,0,1-.88.45,20.12,20.12,0,0,1-2.7.89,23.89,23.89,0,0,1-10.4.25,25.52,25.52,0,0,1-6.82-2.44,32.69,32.69,0,0,0-7.45-3.13,24.81,24.81,0,0,0-8.87.13,52.79,52.79,0,0,1-9.77,1c-6.76-.18-13-1.8-18.72-1.37a19.84,19.84,0,0,0-7.74,2c-2.27,1.13-4.26,2.47-6.2,3.54a19.11,19.11,0,0,1-5.55,2.21,11.61,11.61,0,0,1-4.53.08,7.44,7.44,0,0,1-2.65-1.07,3.46,3.46,0,0,1-.58-.45c-.13-.12-.18-.19-.17-.2a9.48,9.48,0,0,0,3.47,1.33c2.37.4,6-.21,9.66-2.52,1.88-1.08,3.85-2.46,6.18-3.66a20.25,20.25,0,0,1,8-2.18c5.91-.49,12.22,1.12,18.81,1.28a53.34,53.34,0,0,0,9.61-.94,25.2,25.2,0,0,1,9.2,0,32.1,32.1,0,0,1,7.64,3.28,25.39,25.39,0,0,0,6.58,2.49,24.62,24.62,0,0,0,10.17.06C200.89,376.06,202.14,375.5,202.17,375.59Z"/><path class="cls-3" d="M76.59,132.9c.19.2.27.44.16.54s-.34,0-.54-.16-.27-.44-.16-.54S76.39,132.71,76.59,132.9Z"/><path class="cls-4" d="M56,226.21c4.09,0,10.07,0,17.31,0,18.69.1,28.27.16,39.58,1,6.92.5,12.69.93,20.61,2,7.16,1,9.63,1.58,15.66,2a99.06,99.06,0,0,0,16.49,0,150.78,150.78,0,0,0,18.14-3h0l18.14-4c9.07-2,16.49-4,21.44-4s14.84-2,19-2,14,2,14,2H244.76l-9.07,1h0a70,70,0,0,1-9.07,1c-1.42,0-2.57,0-3.3,0a137.75,137.75,0,0,0-17.32,3c-5.19,1.24-5.65,1.68-11.54,3-.37.08-6.32,1.41-12.37,3a30.15,30.15,0,0,0-3.29,1c-3.5,1.27-3.89,2.1-6.6,3a22.42,22.42,0,0,1-5.77,1,47.54,47.54,0,0,1-5,0c-4.7-.11-4,.11-7.42,0a97,97,0,0,1-10.39-1l-.33,0a107,107,0,0,1-13.19-3c-4.85-1.46-10.38-2-21.44-3-3.12-.3-10.53-1-18.13-1-1,0-4.55,0-12.37,0H61.72l-7.42-1Z"/><path d="M35.41,131.24s-1.84,3.06,0,7.64a32.07,32.07,0,0,0,7.36,10.7c1.85,1.53,3.69,6.11,3.69,6.11a6.88,6.88,0,0,0-5.53,3.06c-1.84,3.05-5.52,6.11-7.36,7.64s-1.84,7.64-3.68,10.69-1.84,13.75-1.84,18.34v21.39c0,1.53-1.84,3.06-5.53,9.17S17,241.26,17,244.31v21.4S11.48,255,11.48,252s0-15.28-1.84-18.33S4.11,226,6,216.81s0-38.2,0-41.26,0-7.64,3.69-15.28,16.57-19.86,16.57-19.86Z"/><path d="M279.34,130.63s1.84,3.06,0,7.64A32.07,32.07,0,0,1,272,149c-1.84,1.53-3.69,6.11-3.69,6.11a6.88,6.88,0,0,1,5.53,3.06c1.84,3.05,5.52,6.11,7.36,7.64s1.84,7.64,3.68,10.69,1.84,13.76,1.84,18.34V216.2c0,1.53,1.85,3.06,5.53,9.17s5.52,15.28,5.52,18.34V265.1s5.52-10.7,5.52-13.75,0-15.28,1.84-18.34,5.53-7.64,3.69-16.81,0-38.2,0-41.25,0-7.64-3.69-15.28-16.56-19.87-16.56-19.87Z"/><path d="M54.74,150.34H76.83c3.68,0,7.37,3.06,12.89,4.59s11,9.16,16.57,9.16,20.25,7.64,27.61,7.64h31.3c5.52,0,18.41-3,25.77-4.58s20.25-7.64,25.78-9.17,11-7.64,18.41-7.64,22.09-1.53,23.93-1.53,5.52-1.52,5.52-1.52,3.68-12.23,3.68-18.34,0-13.75-1.84-18.34-7.36-10.69-7.36-10.69l-2.76-2.29a16,16,0,0,1,1.84,7.64c0,4.58-3.68,12.22-3.68,12.22s-3.68-4.58-3.68-9.17,1.84-7.64,0-12.22-9.21-10.7-11.05-12.23-12.89-9.16-12.89-9.16a13.52,13.52,0,0,0,0,9.16c1.84,4.59,3.68,22.92,3.68,24.45s-3.68,15.28-3.68,15.28l-3.68,3.06s3.68-10.7,1.84-19.87l-1.84-9.16s0-7.64-1.84-9.17a4.41,4.41,0,0,1-1.84-3.06l-3.68-9.17S210.3,65.54,206.62,64s-9.2-3.06-11-3.06-5.53-1.52-5.53-1.52,0,1.52,1.84,4.58,3.69,9.17,3.69,12.22V116c0,3.06-1.84,9.17-1.84,10.7s-3.69,7.64-5.53,9.17l-5.52,4.58a22.7,22.7,0,0,1,1.84-7.64c1.84-4.58,1.84-13.75,1.84-15.28V99.15c0-1.52-1.84-16.8-1.84-16.8a13.83,13.83,0,0,1-1.84-6.12c0-3-1.84-10.69-3.68-12.22s-3.68-4.58-5.53-6.11-7.36-1.53-11-1.53-11.05,0-14.73,1.53-9.2,1.53-9.2,3.05S133,70.12,133,73.18s-1.84,10.69-3.68,15.28,0,3.05-1.84,4.58,0,15.28,0,18.34,3.68,15.28,3.68,18.33,3.68,12.23,3.68,13.76-9.2-4.59-11-9.17-1.84-6.11-1.84-6.11-3.69-7.64-3.69-10.7v-29s-1.84-6.11,0-9.17,1.85-9.17,3.69-10.7S125.62,61,125.62,61V59.43s-7.37,1.52-9.21,3-9.2,3.06-12.88,9.17S98,79.29,96.16,83.87,94.32,90,94.32,93s-1.84,10.7-1.84,16.81v10.7c0,3,1.84,9.16,3.68,10.69l-11-9.17s-1.84-9.16-1.84-10.69V90c0-3.06,1.84-7.64,3.68-9.17s3.68-7.64,3.68-7.64l-9.2,7.64c-1.85,1.53-9.21,4.58-11,7.64s-5.52,6.11-5.52,12.22,0,9.17-1.84,10.7-1.85,6.11-1.85,6.11-3.68-6.11-3.68-7.64v-9.17a22.06,22.06,0,0,1-3.68,4.59,4.38,4.38,0,0,0-1.84,3s-1.84,4.59-1.84,6.11V116s-1.84,7.64-1.84,9.17-1.84,4.58,0,9.17l1.84,4.58s-1.84,3.06,0,4.59L52,145Z"/><path d="M122.86,51c1.84,0,7.36-4.58,12.88-4.58h16.57c3.68,0,25.78-1.53,25.78,0s5.52,3.06,5.52,3.06,3.68,1.52,5.52,0,1.84-4.59,5.53-4.59H202c1.84,0,1.84,1.53,3.68,3.06s9.21,4.58,9.21,4.58,0-12.22-3.69-13.75,0,0-3.68-3.06,5.53-4.58-5.52-4.58-12.89-3.06-16.57,0-12.89,6.11-12.89,6.11-1.84,1.53-1.84,0-3.68-4.58,0-7.64,5.53-1.53,5.53-3.05,1.84-4.59,7.36-6.12,9.2-4.58,12.89-1.52,9.2,6.11,11,7.64,7.37,3.05,7.37,3.05A21.4,21.4,0,0,1,209.38,22c-1.84-4.58-1.84-7.64-9.2-10.69s-5.52-4.59-14.73-7.64S174.4-.93,168.88.6,156,2.13,152.31,5.18s-11,7.64-12.88,13.76-3.69,10.69-3.69,15.28a28.16,28.16,0,0,0,1.85,9.16,73.3,73.3,0,0,1-7.37-4.58c-1.84-1.53-1.84-6.11-1.84-7.64s3.68-12.22,3.68-12.22l1.84-3.06s3.69-3.06-3.68,1.53-10.12,8.4-10.12,11.46-1.85,7.64-1.85,10.69,0,7.64,1.85,9.17Z"/><path d="M300.3,250.71a8.58,8.58,0,0,1,4.21,1.41,9.43,9.43,0,0,1,1.29,1.09c2.48,2.57,2.88,9.65,3,12,.31,6.14.46,9.27.5,12.5s0,6.1,0,8a77.21,77.21,0,0,1-4,22l-5.5,10.5s-1,3,0,5c.12.24.23.35.33.35.82,0,1.74-3.54,3.67-7.35,1.35-2.67,2.09-3.22,3.5-5.5a39.05,39.05,0,0,0,4.5-11.5c1.38-5.18,1.75-11.29,2.5-23.5,0,0,.67-11,0-17,0-.09-.49-4.43-.5-4.5h0a10.25,10.25,0,0,0-2.5-5.5,10,10,0,0,0-3.5-2.5q-6.41-3.71-7.5-2.5c-.38.4-.28,1.24.27,2.5Z"/><path d="M301.3,295.71s1,2-1,7-3,7-3,7l-1,2,4-7,2-5,1-4v-3l-1-1Z"/><path d="M14.3,245a8.66,8.66,0,0,0-4.21,1.41,8.81,8.81,0,0,0-1.29,1.09c-2.48,2.58-2.88,9.65-3,12-.31,6.14-.47,9.28-.5,12.5s0,6.11,0,8a76.07,76.07,0,0,0,1,10,77.11,77.11,0,0,0,3,12l5.5,10.5s1,3,0,5c-.13.25-.24.36-.34.36-.81,0-1.73-3.55-3.66-7.36-1.35-2.67-2.09-3.22-3.5-5.5a39.05,39.05,0,0,1-4.5-11.5C1.42,288.36,1.05,282.25.3,270c0,0-.67-10.95,0-17l.5-4.5h0A10.2,10.2,0,0,1,3.3,243a10,10,0,0,1,3.5-2.5q6.41-3.69,7.5-2.5c.37.41.28,1.24-.27,2.5Z"/><path d="M13.3,290s-1,2,1,7,3,7,3,7l1,2-4-7-2-5-1-4v-3l1-1Z"/></g></g></g></svg>